<svg width="180" height="24" viewBox="0 0 180 24" fill="none" xmlns="http://www.w3.org/2000/svg">
<path fill-rule="evenodd" clip-rule="evenodd" d="M73.0489 11.3907C72.6769 11.2285 72.2696 11.1434 71.842 11.1434C70.1047 11.1434 68.6906 12.4846 68.6906 15.7029V22.9438H64.668V7.52269H68.6906V9.09514C69.4244 8.06058 70.49 7.32412 72.0432 7.12074C72.3857 7.07579 72.7213 7.05866 73.0489 7.06615V11.3907ZM179.486 11.3907C179.114 11.2285 178.707 11.1434 178.279 11.1434C176.542 11.1434 175.129 12.4846 175.129 15.7029V22.9438H171.105V7.52269H175.129V9.09514C175.862 8.06058 176.928 7.32412 178.481 7.12074C178.823 7.07579 179.159 7.05866 179.486 7.06615V11.3907ZM156.076 13.2217C156.8 11.3801 158.485 10.0859 160.444 10.0859C162.402 10.0859 164.087 11.3801 164.81 13.2217H156.076ZM162.433 6.69391C162.386 6.68321 162.339 6.67144 162.292 6.66127C162.218 6.64575 162.144 6.63129 162.07 6.61738C162.007 6.6056 161.944 6.59437 161.881 6.58366C161.814 6.57296 161.747 6.56279 161.679 6.55315C161.606 6.54245 161.532 6.53335 161.458 6.52479C161.397 6.51783 161.337 6.51087 161.276 6.50498C161.189 6.49696 161.102 6.49053 161.014 6.48518C160.964 6.48197 160.914 6.47769 160.863 6.47501C160.727 6.46859 160.591 6.46484 160.454 6.46484C160.451 6.46484 160.444 6.46484 160.444 6.46484C155.609 6.46484 151.676 10.3976 151.676 15.2322C151.676 20.0667 155.609 23.9995 160.444 23.9995C160.608 23.9995 160.772 23.9941 160.935 23.985C160.983 23.9823 161.029 23.9775 161.076 23.9743C161.193 23.9658 161.31 23.9567 161.425 23.9433C161.476 23.9379 161.526 23.931 161.576 23.9245C161.691 23.9096 161.805 23.893 161.918 23.8737C161.962 23.8662 162.006 23.8582 162.05 23.8502C162.175 23.8266 162.299 23.8014 162.422 23.7725C162.451 23.7661 162.481 23.7592 162.511 23.7522C164.456 23.2796 166.149 22.1562 167.347 20.6271L164.276 18.2604C163.413 19.5433 162.017 20.3788 160.444 20.3788C158.277 20.3788 156.447 18.7956 155.881 16.6398H169.097C169.171 16.1816 169.211 15.7117 169.211 15.2322C169.211 14.5396 169.128 13.8668 168.977 13.2208H168.975C168.214 9.99189 165.664 7.44749 162.433 6.69391ZM110.758 13.2217C111.481 11.3801 113.166 10.0859 115.125 10.0859C117.083 10.0859 118.769 11.3801 119.492 13.2217H110.758ZM117.116 6.69391C117.069 6.68321 117.022 6.67144 116.975 6.66127C116.901 6.64575 116.827 6.63129 116.753 6.61738C116.69 6.6056 116.627 6.59437 116.564 6.58366C116.497 6.57296 116.43 6.56279 116.362 6.55315C116.289 6.54245 116.215 6.53335 116.141 6.52479C116.081 6.51783 116.02 6.51087 115.959 6.50498C115.872 6.49696 115.785 6.49053 115.697 6.48518C115.647 6.48197 115.597 6.47769 115.546 6.47501C115.41 6.46859 115.274 6.46484 115.134 6.46484C115.134 6.46484 115.13 6.46484 115.127 6.46484C110.292 6.46484 106.359 10.3976 106.359 15.2322C106.359 20.0667 110.292 23.9995 115.127 23.9995C115.292 23.9995 115.455 23.9941 115.618 23.985C115.666 23.9823 115.712 23.9775 115.759 23.9743C115.877 23.9658 115.993 23.9567 116.108 23.9433C116.159 23.9379 116.209 23.931 116.259 23.9245C116.374 23.9096 116.488 23.893 116.601 23.8737C116.645 23.8662 116.69 23.8582 116.733 23.8502C116.858 23.8266 116.982 23.8014 117.105 23.7725C117.134 23.7661 117.164 23.7592 117.194 23.7522C119.139 23.2796 120.832 22.1562 122.03 20.6271L118.959 18.2604C118.096 19.5433 116.7 20.3788 115.127 20.3788C112.961 20.3788 111.13 18.7956 110.564 16.6398H123.78C123.854 16.1816 123.894 15.7117 123.894 15.2322C123.894 14.5396 123.812 13.8668 123.66 13.2208H123.659C122.897 9.99189 120.347 7.44749 117.116 6.69391ZM32.4258 13.2217C33.1494 11.3801 34.8342 10.0859 36.7931 10.0859C38.7515 10.0859 40.4368 11.3801 41.1599 13.2217H32.4258ZM38.7821 6.69391C38.735 6.68321 38.6884 6.67144 38.6408 6.66127C38.5675 6.64575 38.4931 6.63129 38.4187 6.61738C38.3561 6.6056 38.2934 6.59437 38.2303 6.58366C38.1634 6.57296 38.096 6.56279 38.0285 6.55315C37.9552 6.54245 37.8813 6.53335 37.8075 6.52479C37.747 6.51783 37.686 6.51087 37.625 6.50498C37.5383 6.49696 37.451 6.49053 37.3632 6.48518C37.3129 6.48197 37.2626 6.47769 37.2118 6.47501C37.0764 6.46859 36.9399 6.46484 36.7997 6.46484C36.7997 6.46484 36.7959 6.46484 36.7927 6.46484C31.9581 6.46484 28.0254 10.3976 28.0254 15.2322C28.0254 20.0667 31.9581 23.9995 36.7927 23.9995C36.9576 23.9995 37.1213 23.9941 37.284 23.985C37.3317 23.9823 37.3782 23.9775 37.4253 23.9743C37.5425 23.9658 37.6587 23.9567 37.7743 23.9433C37.8251 23.9379 37.8749 23.931 37.9252 23.9245C38.0398 23.9096 38.1538 23.893 38.2667 23.8737C38.3111 23.8662 38.3555 23.8582 38.3994 23.8502C38.5241 23.8266 38.6483 23.8014 38.7709 23.7725C38.8003 23.7661 38.8303 23.7592 38.8597 23.7522C40.8047 23.2796 42.4981 22.1562 43.6959 20.6271L40.6254 18.2604C39.7621 19.5433 38.3657 20.3788 36.7927 20.3788C34.6267 20.3788 32.7963 18.7956 32.23 16.6398H45.446C45.5199 16.1816 45.56 15.7117 45.56 15.2322C45.56 14.5396 45.4771 13.8668 45.3256 13.2208H45.3245C44.5635 9.99189 42.0132 7.44749 38.7821 6.69391ZM105.631 19.2794C103.439 22.1166 100.007 23.9486 96.152 23.9486C89.5497 23.9486 84.1777 18.5772 84.1777 11.9743C84.1777 5.37139 89.5497 0 96.152 0C100.007 0 103.439 1.83203 105.631 4.66919L102.56 7.0359C101.111 4.96677 98.7789 3.62071 96.152 3.62071C91.7676 3.62071 88.2004 7.36827 88.2004 11.9743C88.2004 16.5809 91.7676 20.3284 96.152 20.3284C98.7789 20.3284 101.111 18.9824 102.56 16.9133L105.631 19.2794ZM150.655 11.5453H147.638V22.9431H143.615V11.5453H140.598V7.52207H143.615V1.00586H147.638V7.52207H150.655V11.5453ZM10.0566 11.5453H7.03965V22.9431H3.01699V11.5453H0V7.52207H3.01699V1.00586H7.03965V7.52207H10.0566V11.5453ZM82.0988 11.5453H79.0813V22.9431H75.0586V1.00586H79.0813V7.52207H82.0988V11.5453ZM52.4121 16.9099L54.7451 8.74414L57.0776 16.9099H52.4121ZM58.8009 22.9431H62.9847L56.7174 1.00586H52.7712L46.5039 22.9431H50.6877L51.4348 20.3286H58.0538L58.8009 22.9431ZM26.4163 14.6966V22.9431H22.3937V14.8973C22.3937 12.5343 20.9796 11.1428 19.2423 11.1428C17.5045 11.1428 16.091 12.484 16.091 15.7023V22.9431H12.0684V1.00586H16.091V9.09453C16.8248 8.05996 17.8904 7.32351 19.4436 7.12013C23.3656 6.60579 26.4163 9.56712 26.4163 14.6966ZM132.619 7.12013C131.066 7.32351 130.001 8.05996 129.267 9.09453V7.52207H125.244V22.9431H129.267V15.7023C129.267 12.484 130.68 11.1428 132.418 11.1428C134.155 11.1428 135.569 12.5343 135.569 14.8973V22.9431H139.592V14.6966C139.592 9.56712 136.541 6.60579 132.619 7.12013Z" fill="black"/>
</svg>
