<?xml version="1.0" encoding="utf-8"?>
<!-- Generator: Adobe Illustrator 17.0.0, SVG Export Plug-In . SVG Version: 6.00 Build 0)  -->
<!DOCTYPE svg PUBLIC "-//W3C//DTD SVG 1.1//EN" "http://www.w3.org/Graphics/SVG/1.1/DTD/svg11.dtd">
<svg version="1.1" id="Layer_1" xmlns="http://www.w3.org/2000/svg" xmlns:xlink="http://www.w3.org/1999/xlink" x="0px" y="0px"
	 width="276px" height="290.5px" viewBox="0 0 276 290.5" enable-background="new 0 0 276 290.5" xml:space="preserve">
<pattern  x="-2993.5" y="669.5" width="258" height="258" patternUnits="userSpaceOnUse" id="pattern-2" viewBox="0 -258 258 258" overflow="visible">
	<g>
		<polygon fill="none" points="0,0 258,0 258,-258 0,-258 		"/>
		<g>
			
				<image overflow="visible" enable-background="new    " width="258" height="258" id="image-3_1_" xlink:href="88E98CE8AAABA30E.png"  transform="matrix(1 0 0 -1 232.2437 -204.5117)">
			</image>
		</g>
	</g>
</pattern>
<title>Artboard Copy 3</title>
<desc>Created with Sketch.</desc>
<g id="Artboard-Copy-3">
	<g id="Group-6" transform="translate(-3.000000, 0.000000)">
		<g id="Fill-1" transform="translate(156.129133, 165.475259) rotate(114.000000) translate(-156.129133, -165.475259) ">
			<g>
				<path id="path-1" fill="#50AA43" d="M156.355,53.488c4.425,8.265,8.918,16.498,13.466,24.702
					c4.548,8.205,9.15,16.379,13.798,24.472c33.243,58.237,72.921,112.471,102.883,172.372
					c-86.645-18.618-174.1-8.904-260.746,2.429c11.337-55.853,29.152-111.707,66.519-156.29
					c6.025-7.324,12.533-14.338,19.567-20.997c7.034-6.658,14.597-12.96,22.733-18.86C147.936,65.846,156.355,53.488,156.355,53.488
					"/>
			</g>
			<g>
				
					<pattern  id="path-1_2_" xlink:href="#pattern-2" patternTransform="matrix(-0.4067 0.9135 0.9135 0.4067 9261.6924 -2659.7515)">
				</pattern>
				<path id="path-1_1_" fill="url(#path-1_2_)" fill-opacity="0.06" d="M156.355,53.488c4.425,8.265,8.918,16.498,13.466,24.702
					c4.548,8.205,9.15,16.379,13.798,24.472c33.243,58.237,72.921,112.471,102.883,172.372
					c-86.645-18.618-174.1-8.904-260.746,2.429c11.337-55.853,29.152-111.707,66.519-156.29
					c6.025-7.324,12.533-14.338,19.567-20.997c7.034-6.658,14.597-12.96,22.733-18.86C147.936,65.846,156.355,53.488,156.355,53.488
					"/>
			</g>
		</g>
	</g>
</g>
</svg>
